<svg xmlns="http://www.w3.org/2000/svg" width="906" height="618" viewBox="0 0 906 618"><path fill="#ffffff" d="M 434.5 144 L 466.5 144 L 469 146.5 L 466.5 148 L 465.5 147 L 435.5 147 L 433.5 147 L 432 146.5 L 434.5 144 Z "/><path fill="#ffffff" d="M 419.5 147 L 427.5 147 L 428 148.5 L 426.5 150 L 417.5 150 L 414.5 153 Q 408.5 151.5 407 154.5 Q 407.9 157.9 402.5 156 L 404.5 153 L 406.5 154 L 410.5 150 L 412.5 150 L 415.5 151 L 419.5 147 Z "/><path fill="#ffffff" d="M 473.5 147 Q 482 145 484 149.5 L 473.5 150 Q 470.5 148.5 473.5 147 Z "/><path fill="#ffffff" d="M 488.5 150 L 492 151.5 L 491.5 153 L 486 153 Q 484.9 150.3 487.5 151 L 488.5 150 Z "/><path fill="#ffffff" d="M 497.5 153 L 502.5 153 L 507 157.5 L 504.5 156 Q 497.7 157.8 496 154.5 L 497.5 153 Z "/><path fill="#ffffff" d="M 395.5 156 L 399 157.5 Q 399.8 160.1 396.5 159 L 393 160 Q 394.3 163 390.5 162 L 395.5 156 Z "/><path fill="#ffffff" d="M 386.5 162 L 389 163.5 L 384 166 Q 385.3 169 381.5 168 L 386.5 162 Z "/><path fill="#ffffff" d="M 488.5 162 L 504.5 162 L 513.5 166 L 517 169.5 L 522 181.5 L 522 189.5 L 522 191.5 L 523.5 194 Q 528.1 194.6 529.5 192 L 544.5 191 L 552.5 193 L 562 199.5 Q 561.3 201.8 563.5 201 L 570 210.5 L 571 219.5 L 573 223.5 L 573 241.5 L 572 246.5 Q 574.8 248.3 573 254.5 L 580 270.5 L 594 288.5 L 600 299.5 L 601 310.5 L 599 320.5 L 589.5 331 Q 585 330.5 584.5 334 L 581.5 334 L 579 336.5 L 581.5 342 L 586 345.5 L 591 352.5 L 591 364.5 L 588 370.5 L 575.5 383 L 557.5 393 L 541.5 399 L 528 410.5 Q 518.2 430.7 502.5 445 L 497.5 448 Q 490.7 446.7 487.5 449 L 478.5 447 L 469 441 L 467.5 438 L 464 435.5 L 462.5 433 L 457 435 L 453 442 Q 450.3 440.9 451 443.5 Q 446.1 450.1 432.5 448 L 425.5 446 L 417 441 Q 418.1 438.3 415.5 439 L 392.5 412 L 382.5 405 L 366.5 397 L 344.5 390 L 334 383.5 L 328 374.5 L 328 364.5 Q 331.5 362.3 331 357 Q 333.7 358.1 333 355.5 Q 337.6 352.2 338 346 L 327 345 Q 328.3 341.7 323.5 343 L 321 342 Q 322.1 339.3 319.5 340 L 317 339 L 313 331.5 L 313 322.5 L 319 309.5 L 330 293.5 L 334 282.5 L 336 280.5 L 336 276.5 L 339 269.5 L 340 243.5 L 339 242.5 L 339 221.5 L 345 211.5 L 346 205.5 L 349.5 202 Q 353.6 197.6 361.5 197 Q 363 199.5 368.5 198 L 370.5 198 L 381 203 L 382 199.5 Q 377.7 196.3 378 188.5 L 382 179.5 L 386.5 174 L 397.5 168 L 411.5 167 L 412.5 168 L 421.5 168 L 426.5 171 Q 436.1 169.9 440.5 174 L 454.5 174 L 488.5 162 Z M 445 214 L 439 217 L 434 217 L 427 220 L 407 232 L 391 248 L 385 257 L 376 280 L 376 288 L 374 296 L 374 308 L 379 332 Q 383 333 382 339 L 387 345 L 388 349 L 394 357 L 405 366 L 406 369 L 428 381 L 432 381 L 441 385 Q 447 383 449 386 L 465 386 L 466 385 L 478 384 L 480 382 L 492 379 L 512 366 L 520 358 L 533 338 L 533 335 L 537 328 L 537 324 L 540 316 L 540 305 L 541 304 L 540 283 L 537 276 L 537 272 Q 531 257 522 246 Q 523 243 521 244 L 519 242 L 506 229 L 491 220 Q 484 221 483 217 Q 474 218 472 214 L 445 214 Z "/><path fill="#ffffff" d="M 376.5 178 L 378 180.5 L 375 182 L 376.5 178 Z "/><path fill="#ffffff" d="M 526.5 183 Q 531 185 527.5 187 L 525 185.5 L 526.5 183 Z "/><path fill="#ffffff" d="M 539.5 183 L 547.5 183 L 549 184.5 L 544.5 186 L 542.5 185 L 538 186 L 539.5 183 Z "/><path fill="#ffffff" d="M 555 186 L 558 187.5 Q 556.5 190.5 555 187.5 L 555 186 Z "/><path fill="#ffffff" d="M 374.5 192 L 375 195 Q 372.3 196.1 373 193.5 L 374.5 192 Z "/><path fill="#ffffff" d="M 565.5 192 Q 570 194 566.5 196 L 564 194.5 L 565.5 192 Z "/><path fill="#ffffff" d="M 341.5 198 L 342 201 L 339 202.5 Q 339.8 204.8 337.5 204 L 336 204.5 L 341.5 198 Z "/><path fill="#ffffff" d="M 578.5 208 L 582.5 213 Q 578.8 214.3 580 210.5 L 578.5 208 Z "/><path fill="#ffffff" d="M 322.5 232 L 324 232.5 L 321.5 234 L 322.5 232 Z "/><path fill="#ffffff" d="M 320.5 237 L 321 240 L 318 239.5 L 320.5 237 Z "/><path fill="#ffffff" d="M 314.5 252 L 315 257 Q 310.9 258.7 312 254.5 L 314.5 252 Z "/><path fill="#ffffff" d="M 311.5 261 L 312 265.5 Q 310.5 268.5 309 265.5 Q 308.5 261.5 311.5 261 Z "/><path fill="#ffffff" d="M 308.5 270 L 309 280.5 L 306 282 L 306 272.5 L 308.5 270 Z "/><path fill="#ffffff" d="M 305.5 288 L 306 324.5 L 303 322.5 L 303 290.5 L 305.5 288 Z "/><path fill="#ffffff" d="M 607.5 288 Q 611.3 289.5 610 295 Q 605.9 296.7 607 292.5 L 606 290.5 L 607.5 288 Z "/><path fill="#ffffff" d="M 607 313 L 610 313.5 L 607 315 L 607 313 Z "/><path fill="#ffffff" d="M 602.5 324 Q 604.8 323.3 604 325.5 L 594.5 334 Q 591.5 332.5 594.5 331 Q 598.9 332.5 598 329.5 L 601 328 L 602.5 324 Z "/><path fill="#ffffff" d="M 589 334 L 592 334.5 L 589 336.5 L 589 334 Z "/><path fill="#ffffff" d="M 322 346 Q 325 344.8 324 348.5 L 322 347.5 L 322 346 Z "/><path fill="#ffffff" d="M 327.5 349 Q 331.9 347.5 331 350.5 L 329.5 352 L 327.5 349 Z "/><path fill="#ffffff" d="M 323.5 369 L 324 372.5 L 322 371.5 L 323.5 369 Z "/><path fill="#ffffff" d="M 594.5 369 L 595 370.5 L 592 372.5 Q 590.9 369.2 593.5 370 L 594.5 369 Z "/><path fill="#ffffff" d="M 589 378 Q 592.8 376.5 592 379.5 L 589 381.5 L 589 378 Z "/><path fill="#ffffff" d="M 586 384 Q 589.7 382.5 589 385.5 L 586 387.5 L 586 384 Z "/><path fill="#ffffff" d="M 333.5 393 L 336 394 L 337.5 397 Q 339.8 396.3 339 398.5 L 342 400 L 341.5 403 L 333 394.5 L 333.5 393 Z "/><path fill="#ffffff" d="M 574 402 Q 577.8 400.5 577 403.5 L 568 411.5 L 569.5 409 L 571 409 L 571 406 Q 573.7 407.1 573 404.5 L 574 402 Z "/><path fill="#ffffff" d="M 560.5 419 L 553.5 427 Q 550.5 427.7 552 424 L 556 422.5 Q 555.2 419.9 558.5 421 L 560.5 419 Z "/><path fill="#ffffff" d="M 374.5 430 L 375 432.5 L 373 431.5 L 374.5 430 Z "/><path fill="#ffffff" d="M 546.5 430 L 541.5 436 L 541 433 L 544 433 Q 542.9 430.3 545.5 431 L 546.5 430 Z "/><path fill="#ffffff" d="M 381.5 436 Q 384.8 434.9 384 437.5 L 384.5 439 L 381.5 436 Z "/><path fill="#ffffff" d="M 460 439 L 463 440.5 Q 462.3 443.1 465 442 L 465 445 L 468 445 L 468 448 Q 471.8 446.5 471 449.5 L 471.5 451 L 460.5 442 L 457 444.5 Q 455.9 441.2 458.5 442 L 460 439 Z "/><path fill="#ffffff" d="M 532 439 L 535 439.5 L 532 441.5 L 532 439 Z "/><path fill="#ffffff" d="M 399.5 445 L 403 446.5 Q 403.8 448.8 401.5 448 L 399.5 445 Z "/><path fill="#ffffff" d="M 410.5 448 L 412 450.5 L 410.5 451 Q 407.5 449.5 410.5 448 Z "/><path fill="#ffffff" d="M 513 448 L 517 448.5 L 513 451 L 513 448 Z "/><path fill="#ffffff" d="M 476.5 451 L 478 454 L 475 452.5 L 476.5 451 Z "/><path fill="#ffffff" d="M 504 451 L 508 451.5 Q 507.5 454.5 503.5 454 L 504 452.5 L 504 451 Z "/><path fill="#ffffff" d="M 421.5 452 L 424 453.5 L 422.5 454 L 421.5 452 Z "/><path fill="#ffffff" d="M 448 452 L 450 452.5 L 448 453.5 L 448 452 Z "/><path fill="#ffffff" d="M 486.5 454 L 490 454.5 L 487.5 456 L 486.5 454 Z "/><path fill="#F4C800" d="M 511.5 159 L 512 161.5 L 511 161.5 L 511.5 159 Z "/><path fill="#F4C800" d="M 403.5 167 L 406 167.5 L 403.5 168 L 403.5 167 Z "/><path fill="#F4C800" d="M 412.5 167 L 414 167.5 L 412.5 168 L 412.5 167 Z "/><path fill="#F4C800" d="M 521.5 179 Q 523.9 181.1 523 186.5 L 522 186.5 L 521.5 179 Z "/><path fill="#F4C800" d="M 554.5 186 L 556 188.5 L 554 187.5 L 554.5 186 Z "/><path fill="#F4C800" d="M 557.5 188 L 559 188.5 L 557.5 189 L 557.5 188 Z "/><path fill="#F4C800" d="M 532.5 191 L 537 191.5 L 532.5 192 L 532.5 191 Z "/><path fill="#F4C800" d="M 545.5 191 L 548 191.5 L 545.5 192 L 545.5 191 Z "/><path fill="#F4C800" d="M 372.5 193 L 373 194.5 L 372 194.5 L 372.5 193 Z "/><path fill="#F4C800" d="M 362.5 197 L 369 197.5 L 362.5 198 L 362.5 197 Z "/><path fill="#F4C800" d="M 381.5 199 L 382 200.5 L 381 200.5 L 381.5 199 Z "/><path fill="#F4C800" d="M 444.5 214 L 471.5 214 Q 474.4 218.1 482.5 217 Q 484.1 220.9 490.5 220 L 505.5 229 L 519 241.5 L 520.5 244 Q 522.8 243.3 522 245.5 Q 531.4 256.6 537 271.5 L 537 275.5 L 540 282.5 L 541 303.5 L 540 304.5 L 540 315.5 L 537 323.5 L 537 327.5 L 533 334.5 L 533 337.5 L 520 357.5 L 511.5 366 L 491.5 379 L 479.5 382 L 477.5 384 L 465.5 385 L 464.5 386 L 448.5 386 Q 446.8 383.3 440.5 385 L 431.5 381 L 427.5 381 L 406 369 L 404.5 366 L 394 356.5 L 388 348.5 L 387 344.5 L 382 338.5 Q 382.6 332.9 379 331.5 L 374 307.5 L 374 295.5 L 376 287.5 L 376 279.5 L 385 256.5 L 391 247.5 L 406.5 232 L 426.5 220 L 433.5 217 L 438.5 217 L 444.5 214 Z M 441 233 Q 439 236 434 235 L 418 244 L 417 247 Q 414 246 415 249 L 413 250 L 409 255 L 406 256 L 397 272 L 397 275 L 392 286 L 392 290 Q 394 292 401 291 L 403 289 L 403 285 L 409 271 L 426 252 Q 428 253 427 250 Q 431 249 432 252 L 432 262 L 431 263 L 432 265 Q 434 270 431 272 L 432 274 L 432 283 L 431 284 L 432 289 Q 434 292 441 291 L 443 289 L 443 235 L 441 233 Z M 451 236 L 451 246 L 453 247 L 471 247 L 472 252 L 471 253 L 471 289 L 475 291 Q 481 292 483 290 L 484 287 L 483 277 L 483 275 L 484 271 L 483 266 L 484 262 L 484 254 L 483 253 L 484 249 L 484 239 L 483 238 L 483 236 L 451 236 Z M 491 242 L 491 253 L 505 269 Q 511 278 513 290 L 516 291 Q 522 292 523 289 L 519 273 Q 515 261 507 254 L 503 250 L 501 247 L 496 243 L 491 242 Z M 393 299 L 391 301 L 391 310 L 394 311 L 453 311 L 454 310 Q 459 309 461 311 L 493 311 L 494 313 L 493 317 L 494 319 L 493 332 Q 494 335 501 333 L 502 336 Q 494 345 484 351 Q 478 351 477 355 L 471 355 L 466 357 L 463 354 L 464 349 L 463 345 L 464 332 L 460 329 Q 454 328 453 332 L 454 334 L 453 338 L 454 342 L 453 347 Q 452 351 454 353 Q 455 357 452 358 Q 446 358 444 355 L 439 355 L 436 353 L 436 330 L 434 329 L 426 330 L 425 333 L 427 344 Q 426 347 423 346 Q 412 339 407 326 L 404 323 L 395 323 L 393 325 Q 396 336 403 344 Q 411 353 423 360 L 437 366 L 454 369 L 464 369 Q 467 366 475 367 L 491 360 L 500 354 L 511 342 L 519 328 Q 520 324 518 323 L 507 324 L 505 323 L 505 301 L 504 299 L 393 299 Z "/><path fill="#F4C800" d="M 571.5 218 L 572 219.5 L 571 219.5 L 571.5 218 Z "/><path fill="#F4C800" d="M 572.5 242 L 573 246.5 L 572 246.5 L 572.5 242 Z "/><path fill="#F4C800" d="M 339.5 243 L 340 259.5 L 339 259.5 L 339.5 243 Z "/><path fill="#F4C800" d="M 605.5 274 L 607 274.5 L 605.5 275 L 605.5 274 Z "/><path fill="#F4C800" d="M 331.5 349 L 332 350.5 L 330 351.5 L 331.5 349 Z "/><path fill="#F4C800" d="M 334.5 352 L 334 353.5 L 333.5 355 L 333 353.5 L 334.5 352 Z "/><path fill="#F4C800" d="M 591.5 356 L 592 359.5 L 591 359.5 L 591.5 356 Z "/><path fill="#F4C800" d="M 334.5 393 L 336 393.5 L 334.5 394 L 334.5 393 Z "/><path fill="#F4C800" d="M 563.5 415 L 565 415.5 L 563 416 L 562.5 418 L 562 416.5 L 563.5 415 Z "/><path fill="#F4C800" d="M 372.5 430 L 374 430.5 L 372.5 431 L 372.5 430 Z "/><path fill="#F4C800" d="M 544.5 430 L 546 430.5 L 544.5 431 L 544.5 430 Z "/><path fill="#F4C800" d="M 384.5 436 L 385 437.5 L 384 437.5 L 384.5 436 Z "/><path fill="#F4C800" d="M 526 442 L 528 442.5 L 526.5 445 L 526 442 Z "/><path fill="#F4C800" d="M 456.5 444 L 457 446 L 455 445.5 L 456.5 444 Z "/><path fill="#F4C800" d="M 436.5 448 L 443 448.5 L 436.5 449 L 436.5 448 Z "/><path fill="#F4C800" d="M 484.5 448 L 487 448.5 L 484.5 449 L 484.5 448 Z "/><path fill="#F4C800" d="M 489.5 448 L 494 448.5 L 489.5 449 L 489.5 448 Z "/><path fill="#F4C800" d="M 422.5 451 L 426 453.5 L 424.5 454 L 422.5 451 Z "/><path fill="#F4C800" d="M 448.5 451 L 451 451.5 L 448 452 L 447.5 454 L 447 452.5 L 448.5 451 Z "/><path fill="#F4C800" d="M 474.5 451 L 476 451.5 L 474.5 452 L 474.5 451 Z "/><path fill="#F4C800" d="M 503.5 452 L 502.5 454 L 501 453.5 L 503.5 452 Z "/><path fill="#181B24" d="M 431.5 147 L 434.5 148 L 435.5 147 L 465.5 147 L 467.5 147 L 473.5 150 Q 479.8 148.3 481.5 151 L 484.5 150 L 486 153 Q 492.9 152 496 154 Q 494.6 158 501.5 156 L 503.5 156 L 509.5 160 L 511 159.5 L 511.5 162 L 513.5 161 L 523 171.5 L 522 172.5 L 526 176.5 L 525 181.5 L 526 184.5 Q 523.8 185.8 526.5 187 L 529.5 186 Q 530.7 188.2 535.5 187 L 543.5 185 L 547.5 186 L 549.5 185 L 555.5 189 L 560 189 Q 558.9 191.7 561.5 191 L 565.5 196 L 575 204.5 Q 574.3 206.8 576.5 206 L 580 210.5 L 580 213 L 583 213.5 L 582 214.5 L 586 218.5 L 585 220.5 Q 590 222 589 228 L 592 228.5 L 592 230.5 Q 589.9 236.3 594.5 235 L 594 236.5 L 596 242 Q 599 240.8 598 244.5 L 597 247.5 L 601 251.5 L 601 253.5 L 600 256.5 L 602 260 Q 606 258.6 604 265.5 L 603 268.5 L 604 271.5 Q 601.2 273.3 605.5 275 L 607 275.5 L 607 283.5 L 606 286.5 L 607 289.5 L 606 291.5 L 607 295 L 610 296.5 L 610 312.5 L 607 313 L 607 314.5 L 607 318.5 L 602.5 324 Q 599.9 323.2 601 326.5 L 598 328 L 598 331 L 593 331 L 593 334 Q 587.8 331.9 589 336.5 Q 587 334.8 585 338.5 L 585 340.5 L 593 350 L 595 350.5 L 595 368.5 L 592 370 L 591 376.5 L 591.5 378 Q 586.9 376.6 589 382.5 L 586 384 Q 587.2 390.8 582 392.5 L 582.5 394 Q 580.3 393.3 581 395.5 L 575.5 402 L 573 403.5 L 573 406 Q 570.3 404.9 571 407.5 L 568 409 L 568 413 Q 565 412 566 415 L 563.5 415 L 562 419 L 556 421 Q 557.1 423.7 554.5 423 L 552 424 L 547.5 430 L 544 430 L 544 433 Q 539.9 431.3 541 435.5 Q 539.3 433.9 537.5 437 Q 534.9 436.3 536 439 L 532 439 L 532 441.5 Q 530.3 439.9 528.5 443 L 527.5 442 Q 524.9 441.2 526 444.5 Q 524.3 442.9 522.5 446 L 519.5 448 L 517.5 448 Q 511.6 445.9 513 450.5 L 511.5 450 L 504.5 451 L 500.5 454 L 494.5 454 L 491.5 453 Q 490.2 455.2 485.5 454 L 482.5 453 L 478 454 L 476.5 451 L 473.5 451 L 468 446.5 Q 468.7 443.5 465 445 L 465 442 Q 462.3 443.1 463 440.5 L 460.5 439 L 451.5 451 Q 447.8 450.3 447 452.5 L 446.5 454 L 426.5 454 L 422.5 451 L 420.5 452 L 416.5 450 L 413.5 451 L 409.5 448 Q 408 450.5 406.5 447 L 403.5 448 L 403 445 L 397.5 444 Q 396 446.5 394.5 443 L 391.5 441 L 389.5 442 L 385 436 Q 378.1 437.2 376.5 432 L 375 432.5 Q 376.3 428.3 371.5 430 L 364.5 423 L 363 423.5 L 363 421 L 359 421 Q 360.1 418.3 357.5 419 L 344 405.5 L 344 404 L 342 404 L 342 400 L 340.5 400 L 339 397 Q 336.3 398.1 337 395.5 L 336 393 L 330 388.5 Q 331.7 383.7 327.5 385 Q 329.4 382.3 324 379.5 L 325 374.5 Q 322.8 373.2 324 368.5 L 325 365.5 L 324 362.5 L 328 358.5 L 327 357.5 L 329 354.5 L 332 349 L 325.5 348 L 324 348.5 Q 325.3 344.3 320.5 346 L 318 345.5 Q 319.3 341.8 315.5 343 Q 311.3 341.7 312 337 L 309 336.5 L 309 332.5 L 309 331 Q 305.2 332.5 306 329.5 L 307 326.5 L 306 325.5 L 306 287.5 L 307 284.5 L 306 282 L 309 280.5 L 309 269.5 L 312 265.5 L 313 257 Q 317 258.4 315 251.5 L 315 249.5 L 317 246.5 L 319 242.5 L 318 240 Q 322.5 241.8 321 236.5 L 321.5 234 Q 325.7 235.3 324 230.5 L 324 228.5 L 328 223.5 L 327 221.5 L 331 217.5 L 330 216.5 L 334 211.5 L 333 209 Q 335.7 210.1 335 207.5 L 340.5 201 L 343.5 199 L 348.5 195 Q 350 197.5 351.5 194 L 354.5 192 L 370.5 192 L 372 195 L 376 193.5 L 375 191.5 L 376 188.5 L 375 182 L 378 180.5 L 377 177.5 Q 380.5 176 378 174.5 L 382 169.5 L 381.5 168 L 384 168 Q 382.9 165.3 385.5 166 L 389 165 Q 387.3 160.5 392.5 162 Q 394.4 158.4 399 159 Q 397.9 156.3 400.5 157 L 407 156 L 408.5 153 L 410.5 154 L 414.5 153 L 417.5 150 L 426.5 150 L 431.5 147 Z M 488 162 L 454 174 L 441 174 L 435 171 L 428 171 L 423 168 L 415 168 L 414 167 L 397 168 L 387 174 L 378 188 L 379 197 L 381 199 Q 383 204 380 203 L 378 200 L 371 197 L 359 197 L 351 201 L 346 206 L 345 211 L 339 222 L 339 269 L 336 276 L 336 280 L 330 294 L 318 311 L 313 322 L 313 333 L 316 338 L 323 343 L 326 343 L 331 346 L 337 346 L 338 348 L 337 351 L 333 354 Q 334 358 331 357 Q 331 362 328 365 L 328 376 L 333 383 L 344 390 Q 350 389 352 393 L 360 394 L 362 396 L 379 403 L 395 414 L 408 432 Q 417 445 437 449 L 443 449 L 450 445 L 457 435 L 461 433 L 468 438 L 469 441 L 479 447 L 485 449 Q 496 450 502 446 L 513 435 L 528 411 L 542 399 L 556 393 L 559 393 L 575 384 L 581 378 Q 583 379 582 377 L 585 375 L 591 365 L 592 360 L 591 352 L 579 339 L 580 336 L 591 331 L 592 329 L 595 327 L 600 319 Q 599 313 601 312 L 600 299 L 597 293 L 582 274 L 573 255 L 573 224 L 572 219 L 567 205 L 561 198 Q 558 199 559 196 L 548 191 Q 533 189 526 194 L 522 193 Q 521 188 523 187 L 523 182 Q 519 180 520 174 L 517 171 L 517 168 L 512 165 Q 508 166 509 163 L 506 162 L 488 162 Z "/><path fill="#181B24" d="M 440.5 233 L 443 234.5 L 443 288.5 L 440.5 291 Q 434.3 291.7 432 288.5 L 431 283.5 L 432 282.5 L 432 273.5 L 431 271.5 Q 433.5 270 432 264.5 L 431 262.5 L 432 261.5 L 432 251.5 Q 430.8 249 427 250 Q 428.1 252.7 425.5 252 L 409 270.5 L 403 284.5 L 403 288.5 L 400.5 291 Q 394.4 291.8 392 290 L 392 285.5 L 397 274.5 L 397 271.5 L 406 256 L 409 254.5 L 412.5 250 L 415 248.5 Q 414.3 246.3 416.5 247 L 418 244 L 433.5 235 Q 438.8 235.8 440.5 233 Z "/><path fill="#181B24" d="M 451 236 L 482.5 236 L 483 237.5 L 484 238.5 L 484 248.5 L 483 252.5 L 484 253.5 L 484 261.5 L 483 265.5 L 484 270.5 L 483 274.5 L 483 276.5 L 484 286.5 L 483 290 Q 480.6 291.8 474.5 291 L 471 288.5 L 471 252.5 L 472 251.5 L 471 247 L 452.5 247 L 451 245.5 L 451 236 Z "/><path fill="#181B24" d="M 491 242 L 495.5 243 L 501 247 L 502.5 250 L 507 253.5 Q 515 261 519 272.5 L 523 288.5 Q 521.8 292.3 515.5 291 L 513 290 Q 511 277.8 505 268.5 L 491 252.5 L 491 242 Z "/><path fill="#181B24" d="M 392.5 299 L 503.5 299 L 505 300.5 L 505 322.5 L 506.5 324 L 517.5 323 Q 519.8 323.8 519 327.5 L 511 341.5 L 499.5 354 L 490.5 360 L 474.5 367 Q 466.8 365.8 463.5 369 L 453.5 369 L 436.5 366 L 422.5 360 Q 411.3 353.2 403 343.5 Q 395.7 336.3 393 324.5 L 394.5 323 L 403.5 323 L 407 325.5 Q 411.8 338.8 422.5 346 Q 426.5 346.5 427 343.5 L 425 332.5 L 426 330 L 433.5 329 L 436 330 L 436 352.5 L 438.5 355 L 443.5 355 Q 445.5 358.5 451.5 358 Q 454.8 357.3 454 352.5 Q 451.8 351.3 453 346.5 L 454 341.5 L 453 337.5 L 454 333.5 L 453 331.5 Q 454.4 328.4 459.5 329 L 464 331.5 L 463 344.5 L 464 348.5 L 463 353.5 L 465.5 357 L 470.5 355 L 476.5 355 Q 478.4 351.3 483.5 351 Q 494.4 345 502 335.5 L 500.5 333 Q 494.5 334.5 493 331.5 L 494 318.5 L 493 316.5 L 494 312.5 L 492.5 311 L 460.5 311 Q 459 308.5 453.5 310 L 452.5 311 L 393.5 311 L 391 310 L 391 300.5 L 392.5 299 Z "/></svg>